<?xml version="1.0" encoding="UTF-8"?>
<svg width="300" height="500" viewBox="0 0 300 500" xmlns="http://www.w3.org/2000/svg">
  <!-- 卡片边框 -->
  <rect x="5" y="5" width="290" height="490" rx="15" ry="15" fill="#f8f6f0" stroke="#4682b4" stroke-width="3"/>
  
  <!-- 背景渐变 -->
  <defs>
    <linearGradient id="bgGradient" x1="0%" y1="0%" x2="0%" y2="100%">
      <stop offset="0%" stop-color="#696969"/>
      <stop offset="30%" stop-color="#778899"/>
      <stop offset="70%" stop-color="#2f4f4f"/>
      <stop offset="100%" stop-color="#556b2f"/>
    </linearGradient>
    
    <!-- 圣杯渐变 -->
    <linearGradient id="cupGradient" x1="0%" y1="0%" x2="0%" y2="100%">
      <stop offset="0%" stop-color="#ffd700"/>
      <stop offset="100%" stop-color="#daa520"/>
    </linearGradient>
    
    <!-- 人物渐变 -->
    <linearGradient id="personGradient" x1="0%" y1="0%" x2="0%" y2="100%">
      <stop offset="0%" stop-color="#fdbcb4"/>
      <stop offset="100%" stop-color="#f4a460"/>
    </linearGradient>
    
    <!-- 阴暗渐变 -->
    <linearGradient id="darkGradient" x1="0%" y1="0%" x2="0%" y2="100%">
      <stop offset="0%" stop-color="#2f2f2f"/>
      <stop offset="100%" stop-color="#000000"/>
    </linearGradient>
  </defs>
  
  <!-- 背景 -->
  <rect x="10" y="10" width="280" height="480" rx="10" ry="10" fill="url(#bgGradient)"/>
  
  <!-- 阴暗的天空 -->
  <rect x="10" y="10" width="280" height="200" fill="#696969" opacity="0.8"/>
  
  <!-- 远山（阴暗） -->
  <polygon points="10,150 80,100 150,120 220,90 290,140 290,200 10,200" fill="#2f2f2f" opacity="0.7"/>
  
  <!-- 河流或桥梁 -->
  <rect x="10" y="180" width="280" height="40" fill="#4682b4" opacity="0.6"/>
  <ellipse cx="150" cy="200" rx="140" ry="20" fill="#4682b4" opacity="0.4"/>
  
  <!-- 地面 -->
  <rect x="10" y="220" width="280" height="270" fill="#556b2f"/>
  
  <!-- 地面纹理 -->
  <g opacity="0.3">
    <line x1="10" y1="230" x2="290" y2="235" stroke="#2f4f2f" stroke-width="1"/>
    <line x1="15" y1="250" x2="285" y2="255" stroke="#2f4f2f" stroke-width="1"/>
    <line x1="20" y1="270" x2="280" y2="275" stroke="#2f4f2f" stroke-width="1"/>
  </g>
  
  <!-- 悲伤的人物 -->
  <g id="person">
    <!-- 身体（黑色斗篷） -->
    <ellipse cx="150" cy="320" rx="20" ry="35" fill="url(#darkGradient)"/>
    
    <!-- 头部 -->
    <circle cx="150" cy="270" r="12" fill="url(#personGradient)"/>
    
    <!-- 头发 -->
    <path d="M138 265 Q150 255 162 265 Q157 260 150 260 Q143 260 138 265" fill="#2f2f2f"/>
    
    <!-- 眼睛（悲伤） -->
    <ellipse cx="146" cy="268" rx="2" ry="1" fill="#000"/>
    <ellipse cx="154" cy="268" rx="2" ry="1" fill="#000"/>
    
    <!-- 眼泪 -->
    <ellipse cx="145" cy="275" rx="1" ry="3" fill="#87ceeb"/>
    <ellipse cx="155" cy="275" rx="1" ry="3" fill="#87ceeb"/>
    
    <!-- 鼻子 -->
    <line x1="150" y1="270" x2="150" y2="273" stroke="#000" stroke-width="1"/>
    
    <!-- 嘴巴（悲伤表情） -->
    <path d="M148 278 Q150 276 152 278" stroke="#000" stroke-width="1" fill="none"/>
    
    <!-- 手臂（垂下） -->
    <ellipse cx="130" cy="310" rx="8" ry="18" fill="url(#personGradient)" transform="rotate(-10 130 310)"/>
    <ellipse cx="170" cy="310" rx="8" ry="18" fill="url(#personGradient)" transform="rotate(10 170 310)"/>
    
    <!-- 手 -->
    <circle cx="125" cy="325" r="4" fill="url(#personGradient)"/>
    <circle cx="175" cy="325" r="4" fill="url(#personGradient)"/>
    
    <!-- 腿部 -->
    <ellipse cx="140" cy="355" rx="8" ry="20" fill="url(#darkGradient)"/>
    <ellipse cx="160" cy="355" rx="8" ry="20" fill="url(#darkGradient)"/>
    
    <!-- 脚 -->
    <ellipse cx="140" cy="375" rx="6" ry="3" fill="#2f2f2f"/>
    <ellipse cx="160" cy="375" rx="6" ry="3" fill="#2f2f2f"/>
  </g>
  
  <!-- 三个倒下的圣杯（前景） -->
  <!-- 左侧倒下的圣杯 -->
  <g id="fallenCup1">
    <ellipse cx="80" cy="400" rx="12" ry="6" fill="url(#cupGradient)" transform="rotate(45 80 400)"/>
    <ellipse cx="85" cy="395" rx="2" ry="6" fill="url(#cupGradient)" transform="rotate(45 85 395)"/>
    <path d="M75 405 Q70 410 65 405" stroke="#daa520" stroke-width="1.5" fill="none" transform="rotate(45 80 400)"/>
    <ellipse cx="75" cy="405" rx="1.5" ry="4" fill="#daa520" transform="rotate(45 80 400)"/>
    
    <!-- 洒出的液体 -->
    <ellipse cx="60" cy="410" rx="8" ry="3" fill="#dc143c" opacity="0.5"/>
    <ellipse cx="55" cy="415" rx="5" ry="2" fill="#dc143c" opacity="0.3"/>
  </g>
  
  <!-- 中间倒下的圣杯 -->
  <g id="fallenCup2">
    <ellipse cx="150" cy="420" rx="12" ry="6" fill="url(#cupGradient)" transform="rotate(-30 150 420)"/>
    <ellipse cx="145" cy="415" rx="2" ry="6" fill="url(#cupGradient)" transform="rotate(-30 145 415)"/>
    <path d="M155 425 Q160 430 165 425" stroke="#daa520" stroke-width="1.5" fill="none" transform="rotate(-30 150 420)"/>
    <ellipse cx="155" cy="425" rx="1.5" ry="4" fill="#daa520" transform="rotate(-30 150 420)"/>
    
    <!-- 洒出的液体 -->
    <ellipse cx="170" cy="430" rx="10" ry="4" fill="#dc143c" opacity="0.5"/>
    <ellipse cx="180" cy="435" rx="6" ry="2" fill="#dc143c" opacity="0.3"/>
  </g>
  
  <!-- 右侧倒下的圣杯 -->
  <g id="fallenCup3">
    <ellipse cx="220" cy="400" rx="12" ry="6" fill="url(#cupGradient)" transform="rotate(-45 220 400)"/>
    <ellipse cx="215" cy="395" rx="2" ry="6" fill="url(#cupGradient)" transform="rotate(-45 215 395)"/>
    <path d="M225 405 Q230 410 235 405" stroke="#daa520" stroke-width="1.5" fill="none" transform="rotate(-45 220 400)"/>
    <ellipse cx="225" cy="405" rx="1.5" ry="4" fill="#daa520" transform="rotate(-45 220 400)"/>
    
    <!-- 洒出的液体 -->
    <ellipse cx="240" cy="410" rx="8" ry="3" fill="#dc143c" opacity="0.5"/>
    <ellipse cx="245" cy="415" rx="5" ry="2" fill="#dc143c" opacity="0.3"/>
  </g>
  
  <!-- 背后的两个直立圣杯 -->
  <!-- 左后方圣杯 -->
  <g id="standingCup1">
    <ellipse cx="100" cy="250" rx="6" ry="12" fill="url(#cupGradient)"/>
    <ellipse cx="100" cy="238" rx="6" ry="2" fill="url(#cupGradient)"/>
    <path d="M94 245 Q88 245 88 250 Q88 255 94 255" stroke="#daa520" stroke-width="1.5" fill="none"/>
    <ellipse cx="100" cy="262" rx="4" ry="1.5" fill="#daa520"/>
    <ellipse cx="100" cy="250" rx="4" ry="10" fill="#dc143c" opacity="0.7"/>
  </g>
  
  <!-- 右后方圣杯 -->
  <g id="standingCup2">
    <ellipse cx="200" cy="250" rx="6" ry="12" fill="url(#cupGradient)"/>
    <ellipse cx="200" cy="238" rx="6" ry="2" fill="url(#cupGradient)"/>
    <path d="M206 245 Q212 245 212 250 Q212 255 206 255" stroke="#daa520" stroke-width="1.5" fill="none"/>
    <ellipse cx="200" cy="262" rx="4" ry="1.5" fill="#daa520"/>
    <ellipse cx="200" cy="250" rx="4" ry="10" fill="#dc143c" opacity="0.7"/>
  </g>
  
  <!-- 阴暗的装饰 -->
  <g opacity="0.4">
    <!-- 枯萎的花 -->
    <circle cx="50" cy="450" r="2" fill="#8b4513"/>
    <line x1="50" y1="452" x2="50" y2="460" stroke="#2f4f2f" stroke-width="2"/>
    
    <circle cx="250" cy="440" r="2" fill="#8b4513"/>
    <line x1="250" y1="442" x2="250" y2="450" stroke="#2f4f2f" stroke-width="2"/>
    
    <!-- 枯叶 -->
    <ellipse cx="70" cy="470" rx="3" ry="1" fill="#8b4513" transform="rotate(30 70 470)"/>
    <ellipse cx="230" cy="460" rx="3" ry="1" fill="#8b4513" transform="rotate(-30 230 460)"/>
  </g>
  
  <!-- 卡片标题 -->
  <text x="150" y="30" text-anchor="middle" font-family="serif" font-size="12" font-weight="bold" fill="#8b4513">V - FIVE OF CUPS</text>
  <text x="150" y="48" text-anchor="middle" font-family="serif" font-size="10" fill="#8b4513">圣杯五</text>
  
  <!-- 装饰边角 -->
  <g stroke="#4682b4" stroke-width="2" fill="none">
    <path d="M15 15 L25 15 L25 25"/>
    <path d="M275 15 L285 15 L285 25"/>
    <path d="M15 485 L15 475 L25 475"/>
    <path d="M285 485 L285 475 L275 475"/>
  </g>
</svg>