<svg xmlns="http://www.w3.org/2000/svg" viewBox="0 0 300 500" style="background: linear-gradient(135deg, #228b22 0%, #32cd32 50%, #90ee90 100%);">
  <!-- 卡片边框 -->
  <rect x="10" y="10" width="280" height="480" rx="15" ry="15" fill="none" stroke="#d4af37" stroke-width="3"/>
  
  <!-- 内边框 -->
  <rect x="20" y="20" width="260" height="460" rx="10" ry="10" fill="none" stroke="#b8860b" stroke-width="1" opacity="0.7"/>
  
  <!-- 背景渐变 -->
  <defs>
    <linearGradient id="bgGradient" x1="0%" y1="0%" x2="100%" y2="100%">
      <stop offset="0%" style="stop-color:#98fb98;stop-opacity:0.8" />
      <stop offset="50%" style="stop-color:#90ee90;stop-opacity:0.6" />
      <stop offset="100%" style="stop-color:#228b22;stop-opacity:0.8" />
    </linearGradient>
    
    <linearGradient id="dressGradient" x1="0%" y1="0%" x2="100%" y2="100%">
      <stop offset="0%" style="stop-color:#ff69b4;stop-opacity:1" />
      <stop offset="50%" style="stop-color:#ff1493;stop-opacity:0.9" />
      <stop offset="100%" style="stop-color:#dc143c;stop-opacity:1" />
    </linearGradient>
    
    <radialGradient id="crownGlow" cx="50%" cy="50%" r="50%">
      <stop offset="0%" style="stop-color:#ffd700;stop-opacity:1" />
      <stop offset="100%" style="stop-color:#b8860b;stop-opacity:0.8" />
    </radialGradient>
  </defs>
  
  <!-- 背景填充 -->
  <rect x="20" y="20" width="260" height="460" rx="10" ry="10" fill="url(#bgGradient)"/>
  
  <!-- 天空 -->
  <rect x="20" y="20" width="260" height="150" rx="10" ry="10" fill="#87ceeb" opacity="0.7"/>
  
  <!-- 云朵 -->
  <ellipse cx="80" cy="60" rx="25" ry="12" fill="#ffffff" opacity="0.8"/>
  <ellipse cx="220" cy="80" rx="30" ry="15" fill="#ffffff" opacity="0.8"/>
  <ellipse cx="150" cy="50" rx="20" ry="10" fill="#ffffff" opacity="0.8"/>
  
  <!-- 山脉背景 -->
  <path d="M 20 170 L 80 120 L 140 140 L 200 110 L 260 130 L 280 170 Z" fill="#8fbc8f" opacity="0.6"/>
  
  <!-- 森林 -->
  <ellipse cx="60" cy="180" rx="15" ry="25" fill="#006400"/>
  <ellipse cx="90" cy="175" rx="12" ry="20" fill="#228b22"/>
  <ellipse cx="210" cy="185" rx="18" ry="30" fill="#006400"/>
  <ellipse cx="240" cy="180" rx="14" ry="22" fill="#228b22"/>
  
  <!-- 女皇宝座 -->
  <rect x="120" y="280" width="60" height="80" fill="#daa520" stroke="#b8860b" stroke-width="2" rx="5"/>
  <rect x="115" y="275" width="70" height="15" fill="#ffd700" rx="3"/>
  
  <!-- 宝座装饰 -->
  <circle cx="135" cy="300" r="4" fill="#ff69b4"/>
  <circle cx="165" cy="300" r="4" fill="#ff69b4"/>
  <circle cx="150" cy="320" r="5" fill="#ff1493"/>
  
  <!-- 女皇身体 -->
  <ellipse cx="150" cy="280" rx="40" ry="70" fill="url(#dressGradient)"/>
  
  <!-- 女皇头部 -->
  <circle cx="150" cy="210" r="28" fill="#fdbcb4" stroke="#f4a460" stroke-width="1"/>
  
  <!-- 头发 -->
  <path d="M 122 195 Q 150 180 178 195 Q 178 210 150 220 Q 122 210 122 195" fill="#daa520"/>
  <path d="M 125 200 Q 140 190 155 200 Q 170 190 175 200 Q 175 215 150 225 Q 125 215 125 200" fill="#ffd700"/>
  
  <!-- 王冠 -->
  <ellipse cx="150" cy="185" rx="35" ry="12" fill="url(#crownGlow)"/>
  <polygon points="130,185 135,170 140,185" fill="#ffd700"/>
  <polygon points="140,185 145,165 150,185" fill="#ffd700"/>
  <polygon points="150,185 155,160 160,185" fill="#ffd700"/>
  <polygon points="160,185 165,165 170,185" fill="#ffd700"/>
  
  <!-- 王冠上的星星 -->
  <g transform="translate(150, 160)">
    <polygon points="0,-8 2,-2 8,-2 3,1 5,7 0,4 -5,7 -3,1 -8,-2 -2,-2" fill="#ffffff" stroke="#ffd700" stroke-width="0.5"/>
  </g>
  
  <!-- 眼睛 -->
  <circle cx="142" cy="205" r="2" fill="#228b22"/>
  <circle cx="158" cy="205" r="2" fill="#228b22"/>
  
  <!-- 鼻子 -->
  <line x1="150" y1="210" x2="150" y2="215" stroke="#d2691e" stroke-width="1"/>
  
  <!-- 嘴巴 -->
  <path d="M 145 220 Q 150 223 155 220" stroke="#cd5c5c" stroke-width="1.5" fill="none"/>
  
  <!-- 项链 -->
  <ellipse cx="150" cy="240" rx="20" ry="8" fill="none" stroke="#ffd700" stroke-width="2"/>
  <circle cx="150" cy="248" r="4" fill="#ff69b4"/>
  
  <!-- 手臂 -->
  <ellipse cx="115" cy="260" rx="15" ry="35" fill="url(#dressGradient)" transform="rotate(-15 115 260)"/>
  <ellipse cx="185" cy="260" rx="15" ry="35" fill="url(#dressGradient)" transform="rotate(15 185 260)"/>
  
  <!-- 手 -->
  <circle cx="105" cy="285" r="10" fill="#fdbcb4"/>
  <circle cx="195" cy="285" r="10" fill="#fdbcb4"/>
  
  <!-- 权杖 -->
  <rect x="100" y="270" width="4" height="40" fill="#8b4513"/>
  <circle cx="102" cy="268" r="6" fill="#ffd700" stroke="#b8860b" stroke-width="1"/>
  <polygon points="102,262 105,258 102,254 99,258" fill="#ffd700"/>
  
  <!-- 维纳斯符号 -->
  <g transform="translate(195, 285)">
    <circle cx="0" cy="-5" r="4" fill="none" stroke="#ff69b4" stroke-width="2"/>
    <line x1="0" y1="1" x2="0" y2="8" stroke="#ff69b4" stroke-width="2"/>
    <line x1="-3" y1="5" x2="3" y2="5" stroke="#ff69b4" stroke-width="2"/>
  </g>
  
  <!-- 裙摆 -->
  <path d="M 110 350 Q 150 360 190 350 L 190 380 Q 150 390 110 380 Z" fill="url(#dressGradient)" opacity="0.8"/>
  
  <!-- 花朵装饰 -->
  <g transform="translate(70, 320)">
    <circle cx="0" cy="0" r="8" fill="#ff69b4" opacity="0.8"/>
    <circle cx="-6" cy="-6" r="5" fill="#ff1493" opacity="0.8"/>
    <circle cx="6" cy="-6" r="5" fill="#ff1493" opacity="0.8"/>
    <circle cx="-6" cy="6" r="5" fill="#ff1493" opacity="0.8"/>
    <circle cx="6" cy="6" r="5" fill="#ff1493" opacity="0.8"/>
  </g>
  
  <g transform="translate(230, 340)">
    <circle cx="0" cy="0" r="6" fill="#ff69b4" opacity="0.8"/>
    <circle cx="-4" cy="-4" r="3" fill="#ff1493" opacity="0.8"/>
    <circle cx="4" cy="-4" r="3" fill="#ff1493" opacity="0.8"/>
    <circle cx="-4" cy="4" r="3" fill="#ff1493" opacity="0.8"/>
    <circle cx="4" cy="4" r="3" fill="#ff1493" opacity="0.8"/>
  </g>
  
  <!-- 麦穗 -->
  <g transform="translate(50, 380)">
    <line x1="0" y1="0" x2="0" y2="30" stroke="#daa520" stroke-width="2"/>
    <ellipse cx="-2" cy="5" rx="3" ry="2" fill="#ffd700"/>
    <ellipse cx="2" cy="8" rx="3" ry="2" fill="#ffd700"/>
    <ellipse cx="-2" cy="11" rx="3" ry="2" fill="#ffd700"/>
    <ellipse cx="2" cy="14" rx="3" ry="2" fill="#ffd700"/>
    <ellipse cx="-2" cy="17" rx="3" ry="2" fill="#ffd700"/>
  </g>
  
  <g transform="translate(250, 370)">
    <line x1="0" y1="0" x2="0" y2="25" stroke="#daa520" stroke-width="2"/>
    <ellipse cx="-2" cy="3" rx="2" ry="1.5" fill="#ffd700"/>
    <ellipse cx="2" cy="6" rx="2" ry="1.5" fill="#ffd700"/>
    <ellipse cx="-2" cy="9" rx="2" ry="1.5" fill="#ffd700"/>
    <ellipse cx="2" cy="12" rx="2" ry="1.5" fill="#ffd700"/>
  </g>
  
  <!-- 河流 -->
  <path d="M 20 400 Q 80 395 150 400 Q 220 405 280 400 L 280 420 Q 220 415 150 420 Q 80 425 20 420 Z" fill="#4682b4" opacity="0.6"/>
  
  <!-- 水波纹 -->
  <path d="M 30 405 Q 90 402 150 405 Q 210 408 270 405" stroke="#87ceeb" stroke-width="1" fill="none" opacity="0.8"/>
  
  <!-- 卡片标题 -->
  <text x="150" y="450" text-anchor="middle" font-family="serif" font-size="12" font-weight="bold" fill="#8b4513">III - THE EMPRESS</text>
  <text x="150" y="470" text-anchor="middle" font-family="serif" font-size="10" fill="#8b4513">女皇</text>
  
  <!-- 装饰边角 -->
  <g stroke="#d4af37" stroke-width="1" fill="none" opacity="0.6">
    <path d="M 25 25 L 35 25 L 35 35"/>
    <path d="M 275 25 L 265 25 L 265 35"/>
    <path d="M 25 475 L 35 475 L 35 465"/>
    <path d="M 275 475 L 265 475 L 265 465"/>
  </g>
</svg>