<?xml version="1.0" encoding="UTF-8"?>
<svg width="300" height="500" viewBox="0 0 300 500" xmlns="http://www.w3.org/2000/svg">
  <!-- 卡片边框 -->
  <rect x="5" y="5" width="290" height="490" rx="15" ry="15" fill="#f8f6f0" stroke="#8b4513" stroke-width="3"/>
  
  <!-- 背景渐变 -->
  <defs>
    <linearGradient id="bgGradient" x1="0%" y1="0%" x2="0%" y2="100%">
      <stop offset="0%" stop-color="#87ceeb"/>
      <stop offset="30%" stop-color="#b0e0e6"/>
      <stop offset="70%" stop-color="#f0e68c"/>
      <stop offset="100%" stop-color="#daa520"/>
    </linearGradient>
    
    <!-- 权杖渐变 -->
    <linearGradient id="wandGradient" x1="0%" y1="0%" x2="100%" y2="0%">
      <stop offset="0%" stop-color="#8b4513"/>
      <stop offset="50%" stop-color="#a0522d"/>
      <stop offset="100%" stop-color="#8b4513"/>
    </linearGradient>
    
    <!-- 人物渐变 -->
    <linearGradient id="personGradient" x1="0%" y1="0%" x2="0%" y2="100%">
      <stop offset="0%" stop-color="#fdbcb4"/>
      <stop offset="100%" stop-color="#f4a460"/>
    </linearGradient>
  </defs>
  
  <!-- 背景 -->
  <rect x="10" y="10" width="280" height="480" rx="10" ry="10" fill="url(#bgGradient)"/>
  
  <!-- 天空背景 -->
  <rect x="10" y="10" width="280" height="200" fill="#87ceeb" opacity="0.8"/>
  
  <!-- 远山 -->
  <polygon points="10,180 80,120 150,140 220,110 290,160 290,210 10,210" fill="#696969" opacity="0.6"/>
  
  <!-- 地面 -->
  <rect x="10" y="350" width="280" height="140" fill="#daa520"/>
  
  <!-- 地面纹理 -->
  <g opacity="0.3">
    <line x1="20" y1="360" x2="280" y2="365" stroke="#8b4513" stroke-width="1"/>
    <line x1="15" y1="380" x2="285" y2="385" stroke="#8b4513" stroke-width="1"/>
    <line x1="25" y1="400" x2="275" y2="405" stroke="#8b4513" stroke-width="1"/>
  </g>
  
  <!-- 主要人物 -->
  <g id="mainPerson">
    <!-- 身体 -->
    <ellipse cx="150" cy="280" rx="25" ry="40" fill="url(#personGradient)"/>
    
    <!-- 头部 -->
    <circle cx="150" cy="220" r="20" fill="url(#personGradient)"/>
    
    <!-- 头发 -->
    <path d="M130 210 Q150 200 170 210 Q165 205 150 205 Q135 205 130 210" fill="#8b4513"/>
    
    <!-- 眼睛 -->
    <circle cx="145" cy="218" r="2" fill="#000"/>
    <circle cx="155" cy="218" r="2" fill="#000"/>
    
    <!-- 鼻子 -->
    <line x1="150" y1="220" x2="150" y2="225" stroke="#000" stroke-width="1"/>
    
    <!-- 嘴巴 -->
    <path d="M147 228 Q150 230 153 228" stroke="#000" stroke-width="1" fill="none"/>
    
    <!-- 手臂 -->
    <ellipse cx="125" cy="260" rx="8" ry="25" fill="url(#personGradient)" transform="rotate(-20 125 260)"/>
    <ellipse cx="175" cy="260" rx="8" ry="25" fill="url(#personGradient)" transform="rotate(20 175 260)"/>
    
    <!-- 手 -->
    <circle cx="120" cy="280" r="6" fill="url(#personGradient)"/>
    <circle cx="180" cy="280" r="6" fill="url(#personGradient)"/>
    
    <!-- 腿部 -->
    <ellipse cx="140" cy="330" rx="8" ry="30" fill="url(#personGradient)"/>
    <ellipse cx="160" cy="330" rx="8" ry="30" fill="url(#personGradient)"/>
    
    <!-- 脚 -->
    <ellipse cx="140" cy="365" rx="6" ry="8" fill="#8b4513"/>
    <ellipse cx="160" cy="365" rx="6" ry="8" fill="#8b4513"/>
  </g>
  
  <!-- 五根权杖 -->
  <!-- 中间权杖（主要人物手持） -->
  <g id="centerWand">
    <rect x="148" y="180" width="4" height="120" fill="url(#wandGradient)"/>
    <!-- 顶部装饰 -->
    <circle cx="150" cy="175" r="6" fill="#ffd700"/>
    <circle cx="150" cy="175" r="3" fill="#ff6347"/>
    <!-- 新芽 -->
    <ellipse cx="145" cy="185" rx="3" ry="8" fill="#228b22" transform="rotate(-30 145 185)"/>
    <ellipse cx="155" cy="185" rx="3" ry="8" fill="#228b22" transform="rotate(30 155 185)"/>
  </g>
  
  <!-- 左侧两根权杖（交叉攻击） -->
  <g id="leftWands">
    <!-- 左上权杖 -->
    <rect x="70" y="150" width="4" height="100" fill="url(#wandGradient)" transform="rotate(45 72 200)"/>
    <circle cx="65" cy="140" r="5" fill="#ffd700"/>
    <ellipse cx="60" cy="150" rx="2" ry="6" fill="#228b22" transform="rotate(-45 60 150)"/>
    
    <!-- 左下权杖 -->
    <rect x="90" y="200" width="4" height="100" fill="url(#wandGradient)" transform="rotate(-30 92 250)"/>
    <circle cx="88" cy="195" r="5" fill="#ffd700"/>
    <ellipse cx="85" cy="205" rx="2" ry="6" fill="#228b22" transform="rotate(30 85 205)"/>
  </g>
  
  <!-- 右侧两根权杖（交叉攻击） -->
  <g id="rightWands">
    <!-- 右上权杖 -->
    <rect x="226" y="150" width="4" height="100" fill="url(#wandGradient)" transform="rotate(-45 228 200)"/>
    <circle cx="235" cy="140" r="5" fill="#ffd700"/>
    <ellipse cx="240" cy="150" rx="2" ry="6" fill="#228b22" transform="rotate(45 240 150)"/>
    
    <!-- 右下权杖 -->
    <rect x="206" y="200" width="4" height="100" fill="url(#wandGradient)" transform="rotate(30 208 250)"/>
    <circle cx="212" cy="195" r="5" fill="#ffd700"/>
    <ellipse cx="215" cy="205" rx="2" ry="6" fill="#228b22" transform="rotate(-30 215 205)"/>
  </g>
  
  <!-- 地面装饰 -->
  <g opacity="0.6">
    <circle cx="50" cy="380" r="3" fill="#8b4513"/>
    <circle cx="250" cy="390" r="2" fill="#8b4513"/>
    <circle cx="100" cy="400" r="2" fill="#8b4513"/>
    <circle cx="200" cy="410" r="3" fill="#8b4513"/>
  </g>
  
  <!-- 卡片标题 -->
  <text x="150" y="30" text-anchor="middle" font-family="serif" font-size="12" font-weight="bold" fill="#8b4513">V - FIVE OF WANDS</text>
  <text x="150" y="48" text-anchor="middle" font-family="serif" font-size="10" fill="#8b4513">权杖五</text>
  
  <!-- 装饰边角 -->
  <g stroke="#8b4513" stroke-width="2" fill="none">
    <path d="M15 15 L25 15 L25 25"/>
    <path d="M275 15 L285 15 L285 25"/>
    <path d="M15 485 L15 475 L25 475"/>
    <path d="M285 485 L285 475 L275 475"/>
  </g>
</svg>