<?xml version="1.0" encoding="UTF-8"?>
<svg width="300" height="500" viewBox="0 0 300 500" xmlns="http://www.w3.org/2000/svg">
  <!-- 卡片边框 -->
  <rect x="5" y="5" width="290" height="490" rx="15" ry="15" fill="#f8f6f0" stroke="#8b4513" stroke-width="3"/>
  
  <!-- 背景渐变 -->
  <defs>
    <linearGradient id="bgGradient" x1="0%" y1="0%" x2="0%" y2="100%">
      <stop offset="0%" stop-color="#87ceeb"/>
      <stop offset="30%" stop-color="#b0e0e6"/>
      <stop offset="70%" stop-color="#f0e68c"/>
      <stop offset="100%" stop-color="#daa520"/>
    </linearGradient>
    
    <!-- 权杖渐变 -->
    <linearGradient id="wandGradient" x1="0%" y1="0%" x2="100%" y2="0%">
      <stop offset="0%" stop-color="#8b4513"/>
      <stop offset="50%" stop-color="#a0522d"/>
      <stop offset="100%" stop-color="#8b4513"/>
    </linearGradient>
    
    <!-- 马匹渐变 -->
    <linearGradient id="horseGradient" x1="0%" y1="0%" x2="0%" y2="100%">
      <stop offset="0%" stop-color="#8b0000"/>
      <stop offset="100%" stop-color="#654321"/>
    </linearGradient>
    
    <!-- 人物渐变 -->
    <linearGradient id="personGradient" x1="0%" y1="0%" x2="0%" y2="100%">
      <stop offset="0%" stop-color="#fdbcb4"/>
      <stop offset="100%" stop-color="#f4a460"/>
    </linearGradient>
    
    <!-- 盔甲渐变 -->
    <linearGradient id="armorGradient" x1="0%" y1="0%" x2="0%" y2="100%">
      <stop offset="0%" stop-color="#c0c0c0"/>
      <stop offset="100%" stop-color="#808080"/>
    </linearGradient>
  </defs>
  
  <!-- 背景 -->
  <rect x="10" y="10" width="280" height="480" rx="10" ry="10" fill="url(#bgGradient)"/>
  
  <!-- 天空背景 -->
  <rect x="10" y="10" width="280" height="200" fill="#87ceeb" opacity="0.8"/>
  
  <!-- 远山 -->
  <polygon points="10,180 80,120 150,140 220,110 290,160 290,210 10,210" fill="#696969" opacity="0.6"/>
  
  <!-- 地面 -->
  <rect x="10" y="350" width="280" height="140" fill="#daa520"/>
  
  <!-- 地面纹理和尘土飞扬 -->
  <g opacity="0.3">
    <line x1="20" y1="360" x2="280" y2="365" stroke="#8b4513" stroke-width="1"/>
    <line x1="15" y1="380" x2="285" y2="385" stroke="#8b4513" stroke-width="1"/>
    <line x1="25" y1="400" x2="275" y2="405" stroke="#8b4513" stroke-width="1"/>
  </g>
  
  <!-- 尘土云 -->
  <g opacity="0.4">
    <ellipse cx="80" cy="370" rx="15" ry="8" fill="#daa520"/>
    <ellipse cx="220" cy="375" rx="12" ry="6" fill="#daa520"/>
    <ellipse cx="50" cy="380" rx="10" ry="5" fill="#daa520"/>
  </g>
  
  <!-- 马匹（奔跑姿态） -->
  <g id="horse">
    <!-- 马身 -->
    <ellipse cx="150" cy="320" rx="45" ry="25" fill="url(#horseGradient)"/>
    
    <!-- 马头 -->
    <ellipse cx="195" cy="300" rx="18" ry="22" fill="url(#horseGradient)"/>
    
    <!-- 马鬃（飞扬） -->
    <path d="M175 285 Q180 275 185 285 Q190 275 195 285 Q200 275 205 285 Q210 275 215 285" stroke="#2f4f4f" stroke-width="4" fill="none"/>
    
    <!-- 马眼 -->
    <circle cx="200" cy="295" r="2" fill="#000"/>
    <circle cx="200" cy="294" r="1" fill="#fff"/>
    
    <!-- 马鼻孔 -->
    <ellipse cx="205" cy="305" rx="2" ry="1" fill="#000"/>
    
    <!-- 马腿（奔跑姿态） -->
    <rect x="120" y="340" width="8" height="25" fill="url(#horseGradient)" transform="rotate(-15 124 352)"/>
    <rect x="135" y="345" width="8" height="20" fill="url(#horseGradient)" transform="rotate(10 139 355)"/>
    <rect x="165" y="345" width="8" height="20" fill="url(#horseGradient)" transform="rotate(-10 169 355)"/>
    <rect x="180" y="340" width="8" height="25" fill="url(#horseGradient)" transform="rotate(15 184 352)"/>
    
    <!-- 马蹄 -->
    <ellipse cx="118" cy="368" rx="5" ry="3" fill="#2f4f4f" transform="rotate(-15 118 368)"/>
    <ellipse cx="143" cy="368" rx="5" ry="3" fill="#2f4f4f" transform="rotate(10 143 368)"/>
    <ellipse cx="167" cy="368" rx="5" ry="3" fill="#2f4f4f" transform="rotate(-10 167 368)"/>
    <ellipse cx="188" cy="368" rx="5" ry="3" fill="#2f4f4f" transform="rotate(15 188 368)"/>
    
    <!-- 马尾（飞扬） -->
    <path d="M105 315 Q95 320 100 330 Q90 335 95 345 Q85 350 90 360" stroke="#2f4f4f" stroke-width="5" fill="none"/>
  </g>
  
  <!-- 骑士 -->
  <g id="knight">
    <!-- 身体（盔甲） -->
    <ellipse cx="150" cy="280" rx="22" ry="35" fill="url(#armorGradient)"/>
    
    <!-- 盔甲装饰 -->
    <rect x="140" y="260" width="20" height="3" fill="#ffd700"/>
    <rect x="140" y="270" width="20" height="2" fill="#ffd700"/>
    <rect x="140" y="280" width="20" height="2" fill="#ffd700"/>
    
    <!-- 头部 -->
    <circle cx="150" cy="240" r="16" fill="url(#personGradient)"/>
    
    <!-- 头盔 -->
    <ellipse cx="150" cy="235" rx="18" ry="12" fill="url(#armorGradient)"/>
    <rect x="140" y="230" width="20" height="8" fill="url(#armorGradient)"/>
    <!-- 头盔装饰 -->
    <circle cx="150" cy="225" r="3" fill="#ffd700"/>
    
    <!-- 面甲 -->
    <rect x="145" y="235" width="10" height="8" fill="url(#armorGradient)" opacity="0.8"/>
    <line x1="147" y1="237" x2="147" y2="241" stroke="#000" stroke-width="1"/>
    <line x1="153" y1="237" x2="153" y2="241" stroke="#000" stroke-width="1"/>
    
    <!-- 手臂（盔甲） -->
    <ellipse cx="125" cy="270" rx="10" ry="25" fill="url(#armorGradient)" transform="rotate(-20 125 270)"/>
    <ellipse cx="175" cy="270" rx="10" ry="25" fill="url(#armorGradient)" transform="rotate(30 175 270)"/>
    
    <!-- 手（手套） -->
    <circle cx="115" cy="290" r="6" fill="url(#armorGradient)"/>
    <circle cx="185" cy="285" r="6" fill="url(#armorGradient)"/>
    
    <!-- 腿部（盔甲） -->
    <ellipse cx="140" cy="315" rx="10" ry="25" fill="url(#armorGradient)"/>
    <ellipse cx="160" cy="315" rx="10" ry="25" fill="url(#armorGradient)"/>
    
    <!-- 斗篷（飞扬） -->
    <path d="M130 250 Q120 260 125 280 Q115 290 120 310 Q110 320 115 340" stroke="#dc143c" stroke-width="8" fill="none" opacity="0.8"/>
  </g>
  
  <!-- 权杖（骑士手持） -->
  <g id="knightWand">
    <rect x="183" y="200" width="4" height="100" fill="url(#wandGradient)"/>
    <!-- 顶部装饰 -->
    <circle cx="185" cy="195" r="6" fill="#ffd700"/>
    <circle cx="185" cy="195" r="3" fill="#ff6347"/>
    <!-- 新芽 -->
    <ellipse cx="180" cy="205" rx="3" ry="8" fill="#228b22" transform="rotate(-30 180 205)"/>
    <ellipse cx="190" cy="205" rx="3" ry="8" fill="#228b22" transform="rotate(30 190 205)"/>
    <!-- 火焰效果 -->
    <ellipse cx="185" cy="190" rx="4" ry="8" fill="#ff4500" opacity="0.7"/>
    <ellipse cx="183" cy="185" rx="3" ry="6" fill="#ffd700" opacity="0.8"/>
    <ellipse cx="187" cy="185" rx="3" ry="6" fill="#ffd700" opacity="0.8"/>
  </g>
  
  <!-- 运动线条 -->
  <g opacity="0.4">
    <path d="M50 300 Q80 295 110 300" stroke="#daa520" stroke-width="3" fill="none" stroke-dasharray="5,5"/>
    <path d="M60 320 Q90 315 120 320" stroke="#daa520" stroke-width="2" fill="none" stroke-dasharray="3,3"/>
  </g>
  
  <!-- 地面装饰 -->
  <g opacity="0.6">
    <circle cx="50" cy="390" r="3" fill="#8b4513"/>
    <circle cx="250" cy="400" r="2" fill="#8b4513"/>
    <circle cx="100" cy="410" r="2" fill="#8b4513"/>
    <circle cx="200" cy="420" r="3" fill="#8b4513"/>
  </g>
  
  <!-- 卡片标题 -->
  <text x="150" y="30" text-anchor="middle" font-family="serif" font-size="12" font-weight="bold" fill="#8b4513">KNIGHT OF WANDS</text>
  <text x="150" y="48" text-anchor="middle" font-family="serif" font-size="10" fill="#8b4513">权杖骑士</text>
  
  <!-- 装饰边角 -->
  <g stroke="#8b4513" stroke-width="2" fill="none">
    <path d="M15 15 L25 15 L25 25"/>
    <path d="M275 15 L285 15 L285 25"/>
    <path d="M15 485 L15 475 L25 475"/>
    <path d="M285 485 L285 475 L275 475"/>
  </g>
</svg>